<?xml version="1.0" standalone="no"?>
<!DOCTYPE svg PUBLIC "-//W3C//DTD SVG 20010904//EN"
 "http://www.w3.org/TR/2001/REC-SVG-20010904/DTD/svg10.dtd">
<svg version="1.0" xmlns="http://www.w3.org/2000/svg"
 width="500.000000pt" height="500.000000pt" viewBox="0 0 500.000000 500.000000"
 preserveAspectRatio="xMidYMid meet">
<metadata>
Created by potrace 1.14, written by Peter Selinger 2001-2017
</metadata>
<g transform="translate(0.000000,500.000000) scale(0.100000,-0.100000)"
fill="#000000" stroke="none">
<path d="M2340 4007 c-3 -3 -38 -7 -79 -11 -160 -13 -420 -96 -548 -173 -112
-68 -287 -209 -378 -305 -98 -102 -180 -218 -243 -343 -44 -89 -101 -244 -100
-272 1 -10 -6 -54 -15 -98 -36 -170 -41 -422 -12 -525 2 -8 6 -27 9 -43 12
-72 66 -218 77 -211 5 3 13 -5 18 -18 20 -52 90 -194 105 -213 21 -28 20 -3
-3 38 -32 56 -98 258 -115 352 -9 50 -18 98 -20 108 -2 9 0 17 5 17 5 0 9 -9
9 -19 0 -11 3 -22 8 -24 4 -3 6 70 4 161 -2 92 0 177 5 189 5 13 8 -32 8 -115
0 -133 23 -290 46 -318 5 -6 5 -15 1 -19 -4 -5 -2 -5 4 -2 7 4 18 -12 29 -41
56 -147 145 -297 229 -384 14 -15 26 -30 26 -32 0 -3 8 -15 18 -26 9 -11 16
-23 14 -25 -5 -10 32 -72 83 -140 61 -80 208 -220 298 -283 131 -92 353 -182
515 -207 53 -8 127 -20 164 -26 214 -34 589 62 838 214 166 102 355 281 458
436 97 144 194 364 216 488 2 15 10 53 16 83 33 165 31 406 -6 590 -21 101
-82 284 -108 323 -12 18 -44 71 -70 119 -93 166 -244 343 -378 442 -35 26 -72
55 -83 64 -30 24 -242 132 -261 132 -9 0 -58 13 -108 29 -111 36 -218 58 -356
75 -102 13 -311 21 -320 13z m245 -368 c-4 -5 3 -9 14 -9 10 0 21 5 23 12 3 7
11 9 24 3 10 -4 25 -7 32 -6 6 1 12 -3 12 -10 0 -8 4 -8 13 -2 18 15 77 12 77
-3 0 -8 -6 -11 -15 -8 -8 4 -15 2 -15 -3 0 -5 33 -17 73 -27 152 -38 350 -131
414 -193 18 -18 36 -33 42 -33 5 0 16 -10 24 -22 8 -13 32 -41 52 -63 43 -45
119 -155 109 -155 -4 0 0 -8 10 -19 9 -10 14 -25 10 -35 -4 -11 -1 -16 10 -16
10 0 13 -6 9 -17 -3 -10 -3 -15 2 -11 15 14 33 -20 39 -71 3 -29 11 -62 18
-74 7 -12 13 -26 13 -32 1 -5 7 -23 13 -39 7 -16 10 -36 7 -43 -2 -8 2 -28 11
-45 8 -16 13 -36 10 -44 -3 -8 0 -17 7 -20 10 -3 12 -44 11 -169 -1 -90 -6
-170 -10 -177 -5 -7 -7 -23 -5 -36 1 -13 -2 -29 -8 -36 -6 -7 -12 -27 -14 -45
-2 -18 -11 -41 -20 -52 -10 -11 -17 -24 -17 -29 0 -19 -48 -106 -86 -156 -21
-27 -47 -65 -58 -85 -26 -44 -72 -99 -83 -99 -5 0 -17 -13 -26 -30 -10 -16
-22 -30 -28 -30 -5 0 -9 -7 -9 -15 0 -31 41 -7 71 42 13 20 25 31 27 25 6 -18
22 -4 22 18 0 12 5 17 13 14 7 -2 21 4 31 15 10 11 23 18 27 15 14 -8 10 -24
-6 -24 -8 0 -15 -4 -15 -9 0 -5 -25 -34 -55 -65 -77 -78 -75 -100 2 -33 12 11
20 24 17 28 -3 5 3 9 14 9 11 0 40 27 71 65 29 36 55 65 58 65 10 0 -34 -64
-64 -93 -18 -18 -33 -37 -33 -43 0 -12 -76 -90 -152 -157 -24 -21 -81 -56
-128 -78 -47 -22 -106 -51 -133 -64 -26 -14 -57 -25 -70 -25 -12 -1 -40 -8
-62 -16 -37 -15 -62 -19 -123 -23 -13 0 -21 -5 -18 -10 7 -10 -13 -9 -31 2 -6
4 -14 3 -18 -3 -3 -5 -1 -10 5 -10 6 0 9 -3 6 -8 -2 -4 -49 -7 -103 -6 -54 1
-103 -2 -108 -6 -12 -10 -111 -2 -200 16 -16 4 -40 7 -52 8 -13 1 -28 7 -35
14 -7 7 -26 12 -44 12 -17 0 -37 6 -43 14 -7 8 -28 17 -47 21 -19 3 -38 13
-41 21 -3 8 -24 23 -48 33 -23 10 -75 50 -115 87 -40 38 -77 71 -83 73 -18 5
-93 88 -90 98 2 5 -10 17 -27 26 -16 10 -30 25 -30 33 0 8 -4 12 -10 9 -18
-11 -10 -34 22 -64 18 -17 33 -39 33 -48 0 -10 6 -18 13 -18 6 0 11 -2 10 -5
-2 -3 7 -19 19 -36 19 -27 20 -33 8 -38 -8 -3 -15 0 -15 6 0 6 -12 23 -27 39
-36 36 -48 51 -62 77 -6 12 -18 22 -26 22 -8 0 -15 9 -15 20 0 11 -5 20 -12
20 -6 0 -8 3 -5 7 4 3 -3 21 -14 40 -11 18 -17 33 -12 33 4 0 3 4 -3 8 -6 4
-18 21 -27 37 -11 20 -16 24 -17 13 0 -10 22 -60 50 -112 27 -53 46 -97 41
-100 -4 -3 -29 15 -55 40 -41 39 -46 47 -35 61 11 13 9 19 -14 37 -20 16 -36
48 -58 117 -17 51 -35 102 -41 112 -5 10 -11 37 -13 60 -2 23 -7 81 -11 129
-4 48 -10 85 -15 82 -4 -2 -6 -12 -3 -22 5 -13 4 -14 -4 -3 -12 16 -3 173 13
235 6 21 5 27 -4 22 -6 -4 -11 -11 -11 -16 0 -5 -5 -21 -11 -37 -6 -15 -11
-50 -11 -76 0 -33 -4 -50 -14 -54 -8 -3 -14 -15 -14 -27 -1 -17 -2 -18 -9 -6
-12 19 -11 249 1 256 4 3 8 -4 8 -15 0 -36 16 -23 18 14 2 20 7 59 13 88 6 29
13 66 15 82 9 52 62 202 95 267 41 82 110 186 144 218 27 25 27 25 21 3 -4
-13 -5 -23 -3 -23 3 0 29 30 58 68 29 37 68 82 86 100 35 33 55 44 34 18 -10
-12 -7 -13 24 -3 19 6 31 13 25 17 -13 8 13 31 53 48 20 9 26 9 21 1 -4 -7 -1
-10 7 -7 8 3 13 16 12 29 -1 13 1 18 3 12 7 -17 41 -17 51 0 16 24 160 81 231
91 23 3 51 10 62 16 15 8 20 8 20 -2 0 -9 3 -9 12 0 7 7 31 12 55 12 24 0 43
4 43 10 0 11 23 8 54 -5 13 -6 21 -4 24 3 2 8 19 9 49 5 37 -5 44 -3 38 7 -5
9 -4 11 4 6 6 -4 9 -12 6 -17z m1019 -1714 c-4 -8 -11 -15 -16 -15 -6 0 -5 6
2 15 7 8 14 15 16 15 2 0 1 -7 -2 -15z m-1934 -290 c4 3 6 -3 3 -14 -3 -12 3
-24 18 -35 13 -9 19 -16 13 -16 -7 0 -31 19 -55 41 -24 23 -35 35 -25 28 17
-13 18 -12 12 11 l-8 25 17 -23 c9 -12 20 -20 25 -17z m162 -196 c39 -37 125
-88 226 -136 53 -24 99 -49 100 -54 2 -5 10 -9 18 -9 8 0 14 -4 14 -9 0 -6
-13 -5 -32 1 -18 5 -44 12 -58 15 -14 3 -36 14 -50 23 -14 10 -45 26 -70 37
-25 11 -52 26 -60 34 -8 8 -36 28 -62 44 -27 17 -48 34 -48 38 0 5 -4 6 -9 3
-5 -3 -16 6 -25 19 -17 25 -16 25 8 21 14 -3 36 -14 48 -27z m723 -129 c3 -6
-1 -7 -9 -4 -18 7 -21 14 -7 14 6 0 13 -4 16 -10z"/>
<path d="M2463 2740 c-45 -3 -84 -8 -87 -11 -3 -3 -1 -21 5 -40 6 -19 12 -60
14 -92 2 -32 6 -61 9 -65 3 -3 6 -1 6 4 0 6 39 10 89 11 71 0 91 -3 96 -15 3
-8 3 -18 0 -21 -9 -8 -139 -6 -215 3 -56 7 -68 6 -80 -9 -12 -15 -12 -18 5
-28 86 -52 264 -60 351 -16 74 37 70 49 -18 64 -36 6 -38 8 -38 43 0 21 7 64
15 96 9 33 14 60 13 61 -16 12 -99 19 -165 15z"/>
<path d="M1725 2400 c-2 -4 -4 -37 -4 -73 l1 -67 37 0 c47 0 71 24 71 71 0 49
-20 72 -64 74 -20 1 -39 -1 -41 -5z m63 -62 c2 -13 -4 -30 -12 -38 -14 -11
-16 -7 -14 29 1 45 21 52 26 9z"/>
<path d="M1850 2333 c0 -66 2 -73 20 -73 18 0 20 7 20 74 0 69 -2 75 -20 73
-18 -1 -20 -8 -20 -74z"/>
<path d="M1927 2392 c-21 -23 -23 -105 -3 -121 8 -7 32 -11 53 -9 36 3 37 4
38 41 0 32 -3 37 -23 37 -17 0 -22 -5 -20 -17 1 -10 -2 -19 -7 -20 -6 -2 -10
12 -10 30 0 25 4 32 20 32 11 0 23 7 26 15 13 32 -48 41 -74 12z"/>
<path d="M2037 2403 c-2 -5 -3 -37 -3 -73 1 -58 3 -65 21 -68 19 -3 21 2 19
65 -2 85 -1 83 -18 83 -8 0 -17 -3 -19 -7z"/>
<path d="M2150 2334 c0 -67 2 -74 20 -74 18 0 20 7 20 73 0 66 -2 73 -20 74
-18 2 -20 -4 -20 -73z"/>
<path d="M2213 2333 l0 -73 38 0 c42 0 55 23 19 33 -18 5 -20 12 -17 50 5 50
0 64 -24 64 -14 0 -16 -13 -16 -74z"/>
<path d="M2299 2375 c-1 -19 -1 -46 -1 -60 0 -53 1 -55 37 -55 24 0 35 5 35
15 0 8 -7 15 -15 15 -14 0 -21 47 -16 103 2 11 -5 17 -18 17 -17 0 -21 -7 -22
-35z"/>
<path d="M2387 2393 c-9 -32 -7 -95 4 -114 11 -22 68 -26 87 -7 7 7 12 39 12
74 0 57 -2 63 -20 61 -17 -1 -20 -8 -20 -54 0 -28 -4 -55 -10 -58 -10 -6 -11
-4 -15 55 -4 58 -4 60 -19 60 -8 0 -17 -8 -19 -17z"/>
<path d="M2514 2385 c-17 -26 -12 -41 18 -63 24 -18 23 -35 -2 -27 -16 5 -20
2 -20 -14 0 -17 6 -21 35 -21 23 0 37 6 44 18 13 25 3 60 -20 67 -25 8 -24 25
1 25 13 0 20 7 20 20 0 31 -55 27 -76 -5z"/>
<path d="M2617 2403 c-2 -5 -5 -38 -6 -75 -2 -65 -1 -68 21 -68 22 0 23 3 21
67 -1 38 -2 71 -2 76 -1 4 -7 7 -15 7 -8 0 -17 -3 -19 -7z"/>
<path d="M2690 2390 c-26 -26 -27 -90 -2 -113 24 -22 66 -22 83 -1 21 25 17
103 -6 120 -26 19 -52 17 -75 -6z m54 -37 c8 -28 1 -58 -15 -58 -13 0 -22 50
-12 68 7 13 21 8 27 -10z"/>
<path d="M2802 2334 c0 -66 2 -74 19 -74 15 0 19 7 19 33 l1 32 14 -32 c9 -22
21 -33 35 -33 18 0 20 6 20 74 0 65 -2 74 -17 72 -12 -2 -19 -14 -22 -37 l-3
-34 -13 35 c-8 24 -18 35 -33 36 -19 1 -20 -4 -20 -72z"/>
<path d="M2930 2334 c0 -67 2 -74 20 -74 18 0 20 7 20 73 0 66 -2 73 -20 74
-18 2 -20 -4 -20 -73z"/>
<path d="M3007 2398 c-25 -13 -21 -54 8 -76 14 -11 25 -22 25 -25 0 -3 -11 -4
-25 -1 -20 3 -25 0 -25 -16 0 -16 7 -20 33 -20 60 0 79 55 30 87 l-26 17 24 6
c48 12 59 2 59 -56 0 -47 2 -54 20 -54 21 0 24 12 20 78 -1 24 3 32 15 32 10
0 15 7 13 18 -3 14 -16 17 -79 18 -41 1 -83 -2 -92 -8z"/>
<path d="M3197 2389 c-18 -25 -11 -56 14 -70 25 -13 24 -32 -1 -24 -16 5 -20
2 -20 -14 0 -17 6 -21 35 -21 28 0 38 5 47 26 11 24 9 29 -15 50 -32 28 -34
34 -7 34 13 0 20 7 20 20 0 28 -53 28 -73 -1z"/>
<path d="M1536 1782 c-3 -6 -1 -14 5 -17 14 -9 20 -2 10 14 -6 8 -11 9 -15 3z"/>
<path d="M3239 1607 c-31 -23 -65 -48 -75 -54 -16 -11 -15 -11 8 -3 53 18 166
100 137 100 -8 -1 -39 -20 -70 -43z"/>
</g>
</svg>
